{"accessors":[{"bufferView":0,"byteOffset":0,"componentType":5126,"count":95,"max":[0.0,0.024950668210706788,0.025],"min":[0.0,-0.024950668210706795,-0.025],"type":"VEC3"},{"bufferView":0,"byteOffset":1140,"componentType":5126,"count":102,"max":[0.013000000000000001,0.024950668210706788,0.025],"min":[0.0,-0.024950668210706795,-0.025],"type":"VEC3"},{"bufferView":0,"byteOffset":2364,"componentType":5126,"count":121,"max":[0.013000000000000001,0.04998776383426215,0.04995106132599869],"min":[0.013000000000000001,-0.04998776383426215,-0.05],"type":"VEC3"},{"bufferView":0,"byteOffset":3816,"componentType":5126,"count":144,"max":[0.033,0.04998776383426215,0.04995106132599869],"min":[0.013000000000000001,-0.04998776383426215,-0.05],"type":"VEC3"},{"bufferView":0,"byteOffset":5544,"componentType":5126,"count":138,"max":[0.033,0.04998776383426215,0.04995106132599869],"min":[0.033,-0.04998776383426215,-0.05],"type":"VEC3"},{"bufferView":0,"byteOffset":7200,"componentType":5126,"count":136,"max":[0.075,0.04498763332994172,0.04495054011685702],"min":[0.033,-0.04498763332994172,-0.045],"type":"VEC3"},{"bufferView":0,"byteOffset":8832,"componentType":5126,"count":122,"max":[0.075,0.04498763332994172,0.04495054011685702],"min":[0.075,-0.04498763332994172,-0.045],"type":"VEC3"},{"bufferView":0,"byteOffset":10296,"componentType":5126,"count":112,"max":[0.09,0.029987765784845678,0.029951073117784072],"min":[0.075,-0.02998776578484568,-0.03],"type":"VEC3"},{"bufferView":0,"byteOffset":11640,"componentType":5126,"count":100,"max":[0.09,0.029987765784845678,0.029951073117784072],"min":[0.09,-0.02998776578484568,-0.03],"type":"VEC3"},{"bufferView":0,"byteOffset":12840,"componentType":5126,"count":92,"max":[0.09,0.019987816540381915,0.019951281005196487],"min":[0.0,-0.019987816540381915,-0.02],"type":"VEC3"},{"bufferView":1,"byteOffset":0,"componentType":5126,"count":95,"type":"VEC3"},{"bufferView":1,"byteOffset":1140,"componentType":5126,"count":102,"type":"VEC3"},{"bufferView":1,"byteOffset":2364,"componentType":5126,"count":121,"type":"VEC3"},{"bufferView":1,"byteOffset":3816,"componentType":5126,"count":144,"type":"VEC3"},{"bufferView":1,"byteOffset":5544,"componentType":5126,"count":138,"type":"VEC3"},{"bufferView":1,"byteOffset":7200,"componentType":5126,"count":136,"type":"VEC3"},{"bufferView":1,"byteOffset":8832,"componentType":5126,"count":122,"type":"VEC3"},{"bufferView":1,"byteOffset":10296,"componentType":5126,"count":112,"type":"VEC3"},{"bufferView":1,"byteOffset":11640,"componentType":5126,"count":100,"type":"VEC3"},{"bufferView":1,"byteOffset":12840,"componentType":5126,"count":92,"type":"VEC3"},{"bufferView":2,"byteOffset":0,"componentType":5123,"count":285,"type":"SCALAR"},{"bufferView":2,"byteOffset":572,"componentType":5123,"count":300,"type":"SCALAR"},{"bufferView":2,"byteOffset":1172,"componentType":5123,"count":363,"type":"SCALAR"},{"bufferView":2,"byteOffset":1900,"componentType":5123,"count":426,"type":"SCALAR"},{"bufferView":2,"byteOffset":2752,"componentType":5123,"count":414,"type":"SCALAR"},{"bufferView":2,"byteOffset":3580,"componentType":5123,"count":402,"type":"SCALAR"},{"bufferView":2,"byteOffset":4384,"componentType":5123,"count":366,"type":"SCALAR"},{"bufferView":2,"byteOffset":5116,"componentType":5123,"count":330,"type":"SCALAR"},{"bufferView":2,"byteOffset":5776,"componentType":5123,"count":300,"type":"SCALAR"},{"bufferView":2,"byteOffset":6376,"componentType":5123,"count":270,"type":"SCALAR"}],"asset":{"generator":"Open CASCADE Technology 7.8 [dev.opencascade.org]","version":"2.0"},"bufferViews":[{"buffer":0,"byteLength":13944,"byteOffset":0,"byteStride":12,"target":34962},{"buffer":0,"byteLength":13944,"byteOffset":13944,"byteStride":12,"target":34962},{"buffer":0,"byteLength":6916,"byteOffset":27888,"target":34963}],"buffers":[{"byteLength":34804,"uri":"15.bin"}],"materials":[{"name":"mat_0","pbrMetallicRoughness":{"baseColorFactor":[0.168269544839859,0.19120186567306519,0.21586069464683533,1.0]},"doubleSided":true}],"meshes":[{"name":"Body","primitives":[{"attributes":{"NORMAL":10,"POSITION":0},"indices":20,"material":0,"mode":4},{"attributes":{"NORMAL":11,"POSITION":1},"indices":21,"material":0,"mode":4},{"attributes":{"NORMAL":12,"POSITION":2},"indices":22,"material":0,"mode":4},{"attributes":{"NORMAL":13,"POSITION":3},"indices":23,"material":0,"mode":4},{"attributes":{"NORMAL":14,"POSITION":4},"indices":24,"material":0,"mode":4},{"attributes":{"NORMAL":15,"POSITION":5},"indices":25,"material":0,"mode":4},{"attributes":{"NORMAL":16,"POSITION":6},"indices":26,"material":0,"mode":4},{"attributes":{"NORMAL":17,"POSITION":7},"indices":27,"material":0,"mode":4},{"attributes":{"NORMAL":18,"POSITION":8},"indices":28,"material":0,"mode":4},{"attributes":{"NORMAL":19,"POSITION":9},"indices":29,"material":0,"mode":4}]}],"nodes":[{"mesh":0,"name":"Body"}],"scene":0,"scenes":[{"nodes":[0]}]}