{"accessors":[{"bufferView":0,"byteOffset":0,"componentType":5126,"count":54,"max":[0.08025,0.019854177481961083,0.02],"min":[0.0,-0.01985417748196109,-0.02],"type":"VEC3"},{"bufferView":0,"byteOffset":648,"componentType":5126,"count":52,"max":[0.08025,0.029781266222941617,0.03],"min":[0.08025,-0.029781266222941628,-0.03],"type":"VEC3"},{"bufferView":0,"byteOffset":1272,"componentType":5126,"count":54,"max":[0.08025,0.029781266222941617,0.03],"min":[0.05025,-0.029781266222941628,-0.03],"type":"VEC3"},{"bufferView":0,"byteOffset":1920,"componentType":5126,"count":57,"max":[0.05025,0.044942242822697376,0.04476911955263528],"min":[0.05025,-0.044942242822697376,-0.045],"type":"VEC3"},{"bufferView":0,"byteOffset":2604,"componentType":5126,"count":64,"max":[0.05025,0.044942242822697376,0.04476911955263528],"min":[0.033,-0.044942242822697376,-0.045],"type":"VEC3"},{"bufferView":0,"byteOffset":3372,"componentType":5126,"count":64,"max":[0.033,0.049943366959150394,0.049773596128654236],"min":[0.033,-0.049943366959150394,-0.05],"type":"VEC3"},{"bufferView":0,"byteOffset":4140,"componentType":5126,"count":68,"max":[0.033,0.049943366959150394,0.049773596128654236],"min":[0.013000000000000001,-0.049943366959150394,-0.05],"type":"VEC3"},{"bufferView":0,"byteOffset":4956,"componentType":5126,"count":59,"max":[0.013000000000000001,0.049943366959150394,0.049773596128654236],"min":[0.013000000000000001,-0.049943366959150394,-0.05],"type":"VEC3"},{"bufferView":0,"byteOffset":5664,"componentType":5126,"count":54,"max":[0.013000000000000001,0.02481772185245135,0.025],"min":[0.0,-0.024817721852451357,-0.025],"type":"VEC3"},{"bufferView":0,"byteOffset":6312,"componentType":5126,"count":52,"max":[0.0,0.02481772185245135,0.025],"min":[0.0,-0.024817721852451357,-0.025],"type":"VEC3"},{"bufferView":1,"byteOffset":0,"componentType":5126,"count":54,"type":"VEC3"},{"bufferView":1,"byteOffset":648,"componentType":5126,"count":52,"type":"VEC3"},{"bufferView":1,"byteOffset":1272,"componentType":5126,"count":54,"type":"VEC3"},{"bufferView":1,"byteOffset":1920,"componentType":5126,"count":57,"type":"VEC3"},{"bufferView":1,"byteOffset":2604,"componentType":5126,"count":64,"type":"VEC3"},{"bufferView":1,"byteOffset":3372,"componentType":5126,"count":64,"type":"VEC3"},{"bufferView":1,"byteOffset":4140,"componentType":5126,"count":68,"type":"VEC3"},{"bufferView":1,"byteOffset":4956,"componentType":5126,"count":59,"type":"VEC3"},{"bufferView":1,"byteOffset":5664,"componentType":5126,"count":54,"type":"VEC3"},{"bufferView":1,"byteOffset":6312,"componentType":5126,"count":52,"type":"VEC3"},{"bufferView":2,"byteOffset":0,"componentType":5123,"count":156,"type":"SCALAR"},{"bufferView":2,"byteOffset":312,"componentType":5123,"count":156,"type":"SCALAR"},{"bufferView":2,"byteOffset":624,"componentType":5123,"count":156,"type":"SCALAR"},{"bufferView":2,"byteOffset":936,"componentType":5123,"count":171,"type":"SCALAR"},{"bufferView":2,"byteOffset":1280,"componentType":5123,"count":186,"type":"SCALAR"},{"bufferView":2,"byteOffset":1652,"componentType":5123,"count":192,"type":"SCALAR"},{"bufferView":2,"byteOffset":2036,"componentType":5123,"count":198,"type":"SCALAR"},{"bufferView":2,"byteOffset":2432,"componentType":5123,"count":177,"type":"SCALAR"},{"bufferView":2,"byteOffset":2788,"componentType":5123,"count":156,"type":"SCALAR"},{"bufferView":2,"byteOffset":3100,"componentType":5123,"count":156,"type":"SCALAR"}],"asset":{"generator":"Open CASCADE Technology 7.8 [dev.opencascade.org]","version":"2.0"},"bufferViews":[{"buffer":0,"byteLength":6936,"byteOffset":0,"byteStride":12,"target":34962},{"buffer":0,"byteLength":6936,"byteOffset":6936,"byteStride":12,"target":34962},{"buffer":0,"byteLength":3412,"byteOffset":13872,"target":34963}],"buffers":[{"byteLength":17284,"uri":"9.bin"}],"materials":[{"name":"mat_0","pbrMetallicRoughness":{"baseColorFactor":[0.168269544839859,0.19120186567306519,0.21586069464683533,1.0]},"doubleSided":true}],"meshes":[{"name":"Body","primitives":[{"attributes":{"NORMAL":10,"POSITION":0},"indices":20,"material":0,"mode":4},{"attributes":{"NORMAL":11,"POSITION":1},"indices":21,"material":0,"mode":4},{"attributes":{"NORMAL":12,"POSITION":2},"indices":22,"material":0,"mode":4},{"attributes":{"NORMAL":13,"POSITION":3},"indices":23,"material":0,"mode":4},{"attributes":{"NORMAL":14,"POSITION":4},"indices":24,"material":0,"mode":4},{"attributes":{"NORMAL":15,"POSITION":5},"indices":25,"material":0,"mode":4},{"attributes":{"NORMAL":16,"POSITION":6},"indices":26,"material":0,"mode":4},{"attributes":{"NORMAL":17,"POSITION":7},"indices":27,"material":0,"mode":4},{"attributes":{"NORMAL":18,"POSITION":8},"indices":28,"material":0,"mode":4},{"attributes":{"NORMAL":19,"POSITION":9},"indices":29,"material":0,"mode":4}]}],"nodes":[{"mesh":0,"name":"Body"}],"scene":0,"scenes":[{"nodes":[0]}]}